PathFileType	4	(X/Y/Z)	41_1_22_p0_0-314_filt_butterworth.trc
DataRate	CameraRate	NumFrames	NumMarkers	Units	OrigDataRate	OrigDataStartFrame	OrigNumFrames
51.0	51.0	7	27	m	51.0	0	314
Frame#	Time	RHip			RKnee			RAnkle			RBigToe			RSmallToe			RHeel			LHip			LKnee			LAnkle			LBigToe			LSmallToe			LHeel			Neck			Head			Nose			RShoulder			RElbow			RWrist			RThumb			RIndex			RPinky			LShoulder			LElbow			LWrist			LThumb			LIndex			LPinky			
		X1	Y1	Z1	X2	Y2	Z2	X3	Y3	Z3	X4	Y4	Z4	X5	Y5	Z5	X6	Y6	Z6	X7	Y7	Z7	X8	Y8	Z8	X9	Y9	Z9	X10	Y10	Z10	X11	Y11	Z11	X12	Y12	Z12	X13	Y13	Z13	X14	Y14	Z14	X15	Y15	Z15	X16	Y16	Z16	X17	Y17	Z17	X18	Y18	Z18	X19	Y19	Z19	X20	Y20	Z20	X21	Y21	Z21	X22	Y22	Z22	X23	Y23	Z23	X24	Y24	Z24	X25	Y25	Z25	X26	Y26	Z26	X27	Y27	Z27	
0	0.0	0.379308907553061	0.796723064134587	0.5479587161952251	0.39177230562769255	0.4086544403619699	0.622034542973045	0.387889826829676	0.06989948058498262	0.6537410263428806	0.3604442046031173	0.02002283978585548	0.5339217532807566	0.42985535674660535	0.0419144632135751	0.5171304569952879	0.36177302877347145	-0.011299668759502538	0.740610094528258	0.19318643658125814	0.7967912908868171	0.573424427491738	0.17870514770320264	0.39102106465483183	0.652475852105692	0.19501631984884676	0.023697672123678112	0.7042823422385501	0.18920504202968694	0.036407273439906435	0.5126638090321106	0.1470522470697944	0.030859136422764333	0.553922521987738	0.21669124823130215	-0.010948494177741663	0.733912270611441	0.28155222283849096	1.3400933528929637	0.5425735823323079	0.2719603181407382	1.5777444576378525	0.5205681368105585	0.27216795737119176	1.4562423695911788	0.39813841727643773	0.42938677218671073	1.2288887875457737	0.5418275598391954	0.5112793696404562	1.0196086232491097	0.5021448338273816	0.3243811124278966	0.9691091252585297	0.3591094432156454	0.20381824874402285	0.9878456627051	0.3427190590920757	0.19912188918335538	0.9500611063125373	0.3420372351858975	0.24888759390408463	0.9067750684465891	0.3062330949483572	0.13034447756981946	1.2599569364637135	0.5795555838477676	0.045606845846580514	1.0544946031640312	0.4554289004705623	0.19149963192827474	0.9795814650122557	0.3413238029887002	0.2512735893692756	0.9849343253269683	0.32659141486053683	0.26606316107251493	0.9554481803183827	0.32991291817877244	0.23993527089422204	0.9007393784457078	0.3454172178613865	
1	0.0196078431372549	0.37998440419533847	0.7972165796339715	0.5465123377129774	0.39074982745061926	0.4108024184240684	0.6199430805761743	0.387276389598562	0.07155237374356141	0.6513190798182128	0.36296067004751786	0.020336077819570628	0.5412962278188135	0.43007936899773025	0.043893335897497734	0.5172041194743134	0.3630113959203917	-0.008543523696876127	0.7378688799737193	0.192594765905952	0.7961148735190878	0.5734138568953069	0.17967885987836954	0.3927341825316875	0.650230691075663	0.19481980726377587	0.025225059233230443	0.7039684906548873	0.18888769404108519	0.03862322886694407	0.512224856704772	0.14570758918677107	0.02939969168999805	0.5601240151990983	0.21671162953984333	-0.011180496011508737	0.7333913923668997	0.28157723756862774	1.3399740900228787	0.5424361767291154	0.27168804721632317	1.5771953013065898	0.5215391100945953	0.27212970731521563	1.45669137009413	0.39801882688854573	0.4306869358158244	1.232511197566256	0.5330226186235142	0.5090813657610875	1.0208036580520075	0.5018759546348741	0.32439530042935655	0.9691691726557433	0.3589454710606365	0.2045296371264044	0.9901195924318955	0.336667531042455	0.1996702509537263	0.9496114295314291	0.3425395164872974	0.24897730132834608	0.9062849141011013	0.3061357898556005	0.13045258810712815	1.2599112064586258	0.5803006863382477	0.045430973547203345	1.0549028211253335	0.4555905987208282	0.19165507189555914	0.9786678047655836	0.3412292067505797	0.2502882008404805	0.9875154859554444	0.3138528097295961	0.2656680247561236	0.9564803388165921	0.32716106194491096	0.2415310675983981	0.9011370052309136	0.34416918503346516	
2	0.0392156862745098	0.38062812845686406	0.7975627039986556	0.5455151068181643	0.3899953083157121	0.41243103376445306	0.6184553178263922	0.38682617226964555	0.07285362171818864	0.6495208973335851	0.364533813981615	0.020575584285104906	0.5459245178205665	0.4302274766984025	0.045208512469053275	0.5171781480446905	0.36405992414552707	-0.006111269083294913	0.7356009563812287	0.19210893957553485	0.795497257225593	0.5733935120108219	0.1805397200159183	0.39426922089272176	0.6481167727752124	0.1946665335983705	0.026411040155053044	0.7037252675664519	0.18876175828958372	0.0403628789146772	0.5118433150544139	0.14472897120949776	0.028226222591088805	0.564454328814628	0.21671789142041198	-0.011267743524220742	0.7330295429883186	0.28158946844436267	1.3399893110774954	0.5423663866672658	0.27156647961386193	1.5766028364615496	0.5220562885393648	0.27210672488979143	1.4571774899043426	0.39796442864674925	0.43119743431812063	1.2344271310157262	0.5289900545062832	0.5081619574574607	1.0217090043676023	0.5018229687593431	0.3244127090454283	0.969214368619824	0.35886272855162327	0.20553865861407153	0.9915981845672732	0.332840160806204	0.20003597052057495	0.949480602650803	0.3428478075489449	0.24905368433841912	0.9061269105682408	0.3060895494174659	0.13046388870983228	1.2598772920493582	0.5803610571724152	0.04535304527079193	1.054756349019373	0.4555956639815047	0.19170949225703382	0.9785006406333392	0.3411521883623991	0.2506325890703857	0.9889685033996924	0.30714763414603036	0.26573575359326207	0.9568441384015735	0.32623952958840063	0.24277329399584976	0.9012806216168382	0.3438125925830092	
3	0.0588235294117647	0.38124353090633917	0.7977734278024887	0.5449364478401509	0.3894853495029088	0.41358413451396403	0.6175190442561628	0.3865254431789155	0.07383363347849524	0.6482936822623627	0.3653494566932062	0.020753880051098357	0.5483400691058589	0.43031566362345547	0.04597982309892589	0.5170843119737454	0.3649305167165296	-0.003988378916122394	0.7337793615922512	0.1917202392426051	0.7949385159253709	0.5733654766871281	0.18129554131682646	0.3956353980581669	0.6461342024091187	0.1945530867906411	0.027285724398336153	0.7035470398114346	0.18877895533195782	0.041698802096724635	0.5115197754140008	0.1440614652925762	0.027315243880971216	0.5672225987771081	0.2167114334040379	-0.011227802372663196	0.7328099125290888	0.2815919415867465	1.3401001983305754	0.5423512322088744	0.27159416773772127	1.5760070697874757	0.5220929500067668	0.27209560324386056	1.4576716308354667	0.39795928402758884	0.4311025017468878	1.2350248151492866	0.5286583595505544	0.5082217171528907	1.0223603230952432	0.5019367177152586	0.3244314110335455	0.9692484031596631	0.358842932426177	0.20671814219549328	0.992386456404773	0.330824519760611	0.20025136475921476	0.9495742205765667	0.3430047913787953	0.2491135590004021	0.9062183279280305	0.30608439565290935	0.13040695327893395	1.2598489312512968	0.5799198244181105	0.0453511793759881	1.054203823279676	0.45548472270165014	0.1916821881907885	0.9789391611805457	0.34109105265029793	0.2519494041689842	0.9894764946698958	0.3052568471556423	0.2661393258941434	0.9566927155677492	0.3267095979107942	0.2436770316370333	0.9012550661675649	0.3440354741411515	
4	0.0784313725490196	0.3818340621124652	0.7978607416193204	0.5447457851083021	0.389196552292147	0.41430556880344144	0.61708204939795	0.38636047066236046	0.07452281799411213	0.6475846379779103	0.36559341847008875	0.020883485986191372	0.549076327494534	0.4303599135477224	0.046327097957799476	0.5169543805288044	0.3656350769010517	-0.0021603271927220623	0.7323771334482523	0.19141994655976116	0.7944387235374608	0.5733318347730706	0.18195413698207163	0.39684193234825516	0.6442830851821599	0.19447605477859825	0.027879221472270045	0.7034281742280257	0.18889100572498274	0.042703576926705594	0.5112548291164962	0.14365014359060815	0.026643270314580032	0.568737961029319	0.21669365502175086	-0.011078238213621514	0.732715691042601	0.28158768311683	1.340267934055879	0.5423777334160569	0.27176966399226804	1.5754480079691127	0.5216223723587006	0.2720929355263642	1.4581446947011518	0.39798745450760553	0.43058637215541434	1.2346924772220382	0.530956025819379	0.5089612172706928	1.0227932751342783	0.5021680430170908	0.32444947915114175	0.9692749662841523	0.3588677994218692	0.20794091685913857	0.9925894252379347	0.3302081792829645	0.20034875054495918	0.9497978782146277	0.3430531509848038	0.24915374138039337	0.9064764362604938	0.3061103505808866	0.13031035571543534	1.2598198620798273	0.5791601161431745	0.04540349422143366	1.0533938803397687	0.4552984013303227	0.19159245487491297	0.9798425549722263	0.341044104440416	0.25388129624626893	0.9892225767762375	0.3069614078042349	0.26675171996898106	0.9561792068095414	0.3281325437136444	0.24425736207240503	0.9011451774471765	0.344525863339025	
5	0.0980392156862745	0.38240317264394336	0.7978366360230003	0.5449125429519827	0.3891055179633644	0.4146391847637256	0.6170921227842178	0.38631752305596906	0.07495158423467031	0.6473409678535927	0.36545151960006095	0.020976922959022315	0.5486667388064359	0.4303762102460377	0.04637016721635671	0.5168201229771947	0.3661855079667454	-0.0006125879104571953	0.7313673097906972	0.1911993431796015	0.7939979539809013	0.5732946701174944	0.18252332021263132	0.397898042083219	0.6425635262991144	0.1944320255002525	0.028221640886044945	0.7033630376544155	0.18904963002543418	0.04344978191823731	0.5110490674948653	0.1434400782581956	0.026186816646848285	0.5693095515140424	0.21666595580458067	-0.010836616703881002	0.7327300685822465	0.28157971915566476	1.3404537005271693	0.5424329103509298	0.2720915207818696	1.574965657691206	0.5206178334570672	0.2720953148862446	1.4585675833150487	0.398033001563341	0.42983327959698975	1.2338183444890836	0.53481154537581	0.5100810302341832	1.0230435213840565	0.502467786179311	0.32446498615565134	0.9692977480021836	0.3589190462762721	0.2090798115934769	0.9923121083602984	0.3305787107505536	0.2003604447531221	0.9500571704708938	0.34303556937492685	0.24917104754449187	0.9068185056456545	0.30615743622035424	0.13020266992033894	1.2597838225503364	0.5782650604154491	0.04548810816577056	1.0524751566331783	0.45507732631658165	0.19145958748749747	0.9810700105734039	0.3410096485588936	0.2560709154122334	0.9883898667289013	0.3110422751376119	0.26744591412798874	0.9554567486213731	0.330069643798505	0.2445293668524219	0.9010357940197564	0.34497179380776344	
6	0.1176470588235294	0.3829543130694751	0.7977131015873778	0.5454061457005579	0.3891888477964987	0.4146288305256564	0.6174970539474305	0.3863828686957301	0.07515034116980084	0.6475098752627746	0.3651529880821376	0.02103390245390372	0.5477595023954718	0.4303686249824372	0.046221428407596105	0.5167426971704907	0.36659371318126316	0.0006693649333085958	0.7307229284610514	0.19104971075472452	0.7936162811747313	0.5732560665692447	0.18301090420948316	0.3988129455832906	0.6409756309647605	0.1944175868936143	0.028343092148851227	0.7033459969287948	0.18920435528408458	0.04396663452475151	0.5108310006173022	0.1432227868075856	0.02552928944945432	0.5698079968700117	0.21662973528355708	-0.010520503500227065	0.7328362352014157	0.2815669250539978	1.340647182200631	0.5425093721826751	0.27273608318296905	1.5747139676902766	0.5183435279558155	0.2720979239342727	1.4588420554937997	0.39806858207261614	0.4291598900043949	1.2328330928284879	0.5384459863996173	0.5111347976968412	1.0231064098711204	0.5028049095995375	0.32446886468477426	0.9693207241174647	0.35897140960318874	0.20968624324714416	0.9914688684156674	0.33156371754024566	0.20022614196661087	0.9501195490027606	0.34301490482813657	0.24913321221402907	0.9071440481301805	0.3062368668820849	0.13007767716602828	1.2598389957303744	0.5773161187649221	0.04556608122078048	1.051756321546302	0.4548912980312415	0.19131112365390252	0.9824257437159626	0.34099425467552774	0.25782926283222296	0.9871862266554468	0.31559669838343746	0.26808510056756796	0.9547356919992712	0.332126086358353	0.244492298345963	0.9011100701882508	0.34472157649960916	
